<svg width="465" height="105" viewBox="48 65 465 105" fill="none" xmlns="http://www.w3.org/2000/svg">
<path d="M340.213 120.741C340.857 121.902 341.115 123.257 341.115 124.74C341.115 126.223 340.728 127.9 340.019 129.126C339.31 130.351 338.344 131.319 337.055 132.028C335.83 132.738 334.348 133.06 332.737 133.06H312.694V116.936H332.737C334.606 116.936 336.088 117.258 337.377 117.968C338.601 118.677 339.568 119.58 340.148 120.741M347.817 107.712C349.428 105.39 350.202 102.423 350.202 98.9405C350.202 95.4576 349.557 93.3937 348.268 90.6847C346.979 87.9758 344.982 85.7183 342.21 83.9124C339.439 82.1064 335.83 81.2034 331.319 81.2034H320.556V72.4961L300.707 92.3617H325.841H331.19C333.446 92.3617 335.186 93.0067 336.41 94.3611C337.635 95.6511 338.215 97.2636 338.215 99.1985C338.215 101.133 337.893 102.036 337.312 103.004C336.732 103.971 335.895 104.681 334.799 105.197C333.768 105.648 332.543 105.906 331.19 105.906H300.707V144.348H334.09C338.408 144.348 341.953 143.509 344.788 141.897C347.624 140.284 349.751 138.027 351.104 135.189C352.457 132.351 353.166 128.997 353.166 125.256C353.166 121.515 352.2 118.613 350.202 115.775C348.719 113.646 346.722 112.163 344.208 111.131C345.626 110.292 346.915 109.26 347.882 107.777" fill="#01B990"/>
<path d="M53.8125 85.4609V144.284H98.4737L78.6887 124.418V134.931H65.6062V85.4609H53.8125Z" fill="white"/>
<path d="M511.38 143.573L490.693 120.289L511.187 96.8763H495.913L480.253 116.677V81.2031H468.459V143.573H480.253V123.643L496.042 143.573H511.38Z" fill="#01B990"/>
<path d="M415.486 120.162C415.486 124.999 416.453 129.191 418.451 132.868C420.384 136.48 423.155 139.318 426.636 141.317C430.116 143.317 434.111 144.284 438.622 144.284C443.134 144.284 449.127 142.801 452.93 139.834C456.732 136.867 459.31 132.868 460.599 127.772H447.903C446.421 132.029 443.327 134.158 438.558 134.158C433.789 134.158 432.5 132.932 430.567 130.481C428.633 128.03 427.602 124.612 427.602 120.162C427.602 115.711 428.569 112.228 430.567 109.777C432.5 107.326 435.207 106.101 438.558 106.101C441.909 106.101 442.876 106.681 444.487 107.842C446.098 109.003 447.194 110.551 447.903 112.615H460.599C459.31 107.391 456.796 103.327 452.994 100.425C449.192 97.5225 444.423 96.1035 438.622 96.1035C432.822 96.1035 430.116 97.071 426.636 99.0705C423.155 101.07 420.449 103.843 418.451 107.52C416.517 111.132 415.486 115.389 415.486 120.226" fill="#01B990"/>
<path d="M395.312 120.162C395.312 122.999 394.732 125.515 393.637 127.514C392.541 129.578 390.995 131.126 389.061 132.223C387.128 133.319 385.13 133.835 382.939 133.835C380.748 133.835 378.814 133.255 376.945 132.158C375.076 131.062 373.53 129.449 372.37 127.321C371.21 125.192 370.63 122.741 370.63 119.968C370.63 117.195 371.21 114.744 372.37 112.68C373.53 110.616 375.012 109.068 376.881 107.971C378.75 106.875 380.748 106.359 382.939 106.359C385.13 106.359 387.192 106.939 389.061 107.971C390.995 109.068 392.477 110.616 393.637 112.68C394.732 114.744 395.312 117.195 395.312 120.033M358.578 119.968C358.578 124.741 359.545 128.998 361.414 132.674C363.283 136.351 365.861 139.189 369.083 141.253C372.305 143.252 375.914 144.284 379.845 144.284C383.777 144.284 386.419 143.575 389.061 142.156C391.703 140.737 393.83 138.931 395.312 136.738V143.575H407.171V96.8775H395.312V103.521C393.766 101.392 391.639 99.5864 389.061 98.232C386.419 96.813 383.39 96.1035 379.91 96.1035C376.43 96.1035 372.305 97.071 369.083 99.0705C365.861 101.07 363.283 103.843 361.414 107.52C359.545 111.196 358.578 115.389 358.578 120.097" fill="#01B990"/>
<path d="M281.504 96.8135L269.323 129.385L257.272 96.8135H244.061L262.75 142.285L252.632 165.569H265.199L294.071 96.8135H281.504Z" fill="white"/>
<path d="M223.437 144.222C227.111 144.222 230.397 143.641 233.169 142.416C235.94 141.19 238.067 139.513 239.549 137.385C241.031 135.256 241.804 132.805 241.804 130.161C241.804 127.065 240.902 124.614 239.291 122.679C237.68 120.809 235.811 119.39 233.62 118.487C231.429 117.584 228.657 116.745 225.306 115.842C222.019 115.004 219.571 114.165 217.959 113.327C216.413 112.488 215.575 111.327 215.575 109.715C215.575 108.102 216.155 107.199 217.315 106.425C218.475 105.651 220.086 105.264 222.213 105.264C224.34 105.264 226.337 105.78 227.755 106.877C229.109 107.973 229.882 109.457 230.075 111.327H241.353C241.031 106.619 239.162 102.878 235.875 100.105C232.589 97.3311 228.142 95.9121 222.599 95.9121C217.057 95.9121 215.575 96.5571 212.804 97.7826C210.032 99.008 207.906 100.685 206.423 102.813C204.941 104.942 204.168 107.328 204.168 109.908C204.168 112.488 204.941 115.584 206.552 117.39C208.164 119.261 210.032 120.615 212.288 121.518C214.479 122.421 217.379 123.26 220.859 124.163C224.211 125.065 226.66 125.904 228.206 126.678C229.753 127.452 230.526 128.548 230.526 130.096C230.526 131.644 229.882 132.676 228.657 133.579C227.368 134.482 225.628 134.934 223.373 134.934C221.117 134.934 219.119 134.353 217.637 133.192C216.09 132.031 215.188 130.548 214.995 128.742H203.137C203.33 131.58 204.297 134.224 206.037 136.611C207.777 138.997 210.226 140.868 213.255 142.222C216.284 143.577 219.699 144.286 223.502 144.286" fill="white"/>
<path d="M182.77 96.8121V103.455C181.223 101.327 179.096 99.521 176.518 98.1665C173.876 96.7476 170.847 96.0381 167.367 96.0381C163.887 96.0381 159.762 97.0056 156.54 99.005C153.318 101.004 150.74 103.778 148.871 107.454C147.002 111.131 146.035 115.323 146.035 120.032C146.035 124.74 147.002 129.061 148.871 132.738C150.74 136.414 153.318 139.252 156.54 141.316C159.762 143.316 163.371 144.348 167.302 144.348C171.234 144.348 173.876 143.638 176.518 142.219C179.161 140.8 181.287 138.994 182.77 136.801V143.638H194.628V96.9411H182.77V96.8121ZM181.094 127.513C179.998 129.577 178.452 131.125 176.518 132.222C174.585 133.318 172.587 133.834 170.396 133.834C168.205 133.834 166.271 133.254 164.402 132.157C162.533 131.061 160.987 129.448 159.827 127.32C158.667 125.191 158.087 122.741 158.087 119.967C158.087 117.194 158.667 114.743 159.827 112.679C160.987 110.615 162.469 109.067 164.338 107.97C166.207 106.874 168.205 106.358 170.396 106.358C172.587 106.358 174.649 106.938 176.518 107.97C178.452 109.067 179.934 110.615 181.094 112.679C182.189 114.743 182.77 117.194 182.77 120.032C182.77 122.87 182.189 125.385 181.094 127.384V127.513Z" fill="white"/>
<path d="M106.143 115.776C106.594 112.615 107.819 110.164 109.817 108.423C111.815 106.681 114.263 105.778 117.164 105.778C120.064 105.778 122.835 106.681 125.026 108.487C127.153 110.293 128.248 112.744 128.313 115.776H106.143ZM140.493 119.13C140.493 114.55 139.526 110.551 137.593 107.068C135.66 103.585 132.953 100.876 129.408 98.9415C125.928 97.0065 121.933 96.1035 117.486 96.1035C113.039 96.1035 108.786 97.071 105.305 99.0705C101.761 101.07 98.9897 103.843 97.0563 107.52C95.0585 111.196 94.0918 115.389 94.0918 120.226C94.0918 125.063 95.0585 129.191 97.0563 132.868C99.0542 136.544 101.825 139.318 105.37 141.317C108.914 143.317 112.975 144.284 117.421 144.284C121.868 144.284 127.668 142.865 131.471 139.963C135.273 137.06 137.851 133.384 139.204 128.869H126.508C124.639 132.61 121.546 134.545 117.164 134.545C112.781 134.545 111.557 133.577 109.494 131.707C107.432 129.772 106.208 127.127 105.95 123.773H140.042C140.235 122.419 140.364 120.935 140.364 119.194" fill="white"/>
</svg>
