<svg width="20" height="34" viewBox="0 0 20 34" fill="none" xmlns="http://www.w3.org/2000/svg">
<rect width="20" height="34" fill="#00339B"/>
<g clip-path="url(#clip0_980_441)">
<rect width="14" height="14" transform="translate(3 2)" fill="#00339B"/>
<path d="M22.6004 0.601562H-2.59961V17.4016H22.6004V0.601562Z" fill="#00339B"/>
<path d="M10.0014 2.69531L9.79392 3.33245H9.12402L9.66624 3.72599L9.45918 4.36271L10.001 3.96917L10.5432 4.36271L10.3361 3.72557L10.8771 3.33245H10.2085L10.0014 2.69531Z" fill="#FECD00"/>
<path d="M12.1945 5.09123L12.7363 4.69769L13.279 5.09123L13.0715 4.45409L13.6125 4.06097H12.9438L12.7368 3.42383L12.5293 4.06097H11.8594L12.4016 4.45451L12.1945 5.09123Z" fill="#FECD00"/>
<path d="M14.2023 7.10141L14.7441 6.70745L15.2864 7.10141L15.0793 6.46427L15.6198 6.07073H14.9516L14.7441 5.43359L14.5371 6.07073H13.8672L14.4094 6.46427L14.2023 7.10141Z" fill="#FECD00"/>
<path d="M16.3591 8.80511H15.6909L15.4834 8.16797L15.2763 8.80511H14.6064L15.1487 9.19865L14.9416 9.83537L15.4834 9.44141L16.0256 9.83537L15.8186 9.19823L16.3591 8.80511Z" fill="#FECD00"/>
<path d="M14.9409 11.5375L14.7338 10.9004L14.5263 11.5375H13.8564L14.3987 11.9311L14.1916 12.5678L14.7334 12.1743L15.2756 12.5678L15.0686 11.9307L15.6091 11.5375H14.9409Z" fill="#FECD00"/>
<path d="M12.9502 13.5575L12.7432 12.9199L12.5357 13.5575H11.8662L12.408 13.9506L12.201 14.5877L12.7428 14.1938L13.2854 14.5877L13.0779 13.9506L13.6189 13.5575H12.9502Z" fill="#FECD00"/>
<path d="M10.2085 14.2739L10.0014 13.6367L9.79392 14.2739H9.12402L9.66624 14.6674L9.45918 15.3041L10.001 14.9106L10.5432 15.3041L10.3361 14.667L10.8771 14.2739H10.2085Z" fill="#FECD00"/>
<path d="M7.47953 13.5575L7.27247 12.9199L7.06499 13.5575H6.39551L6.93731 13.9506L6.73025 14.5877L7.27205 14.1938L7.81469 14.5877L7.60721 13.9506L8.14817 13.5575H7.47953Z" fill="#FECD00"/>
<path d="M5.46725 11.5375L5.26019 10.9004L5.05271 11.5375H4.38281L4.92503 11.9311L4.71797 12.5678L5.25977 12.1743L5.80199 12.5678L5.59493 11.9307L6.13547 11.5375H5.46725Z" fill="#FECD00"/>
<path d="M4.51814 9.44141L5.06078 9.83537L4.8533 9.19823L5.39426 8.80511H4.72562L4.51856 8.16797L4.31108 8.80511H3.6416L4.1834 9.19865L3.97634 9.83537L4.51814 9.44141Z" fill="#FECD00"/>
<path d="M5.26466 5.43359L5.0576 6.07073H4.3877L4.9295 6.46427L4.72244 7.10141L5.26466 6.70745L5.80688 7.10141L5.5994 6.46427L6.14036 6.07073H5.47172L5.26466 5.43359Z" fill="#FECD00"/>
<path d="M7.27247 3.42383L7.06499 4.06097H6.39551L6.93731 4.45451L6.73025 5.09123L7.27205 4.69769L7.81469 5.09123L7.60721 4.45409L8.14817 4.06097H7.47953L7.27247 3.42383Z" fill="#FECD00"/>
</g>
<path d="M5.98 30V19.92H9.242C9.32133 19.92 9.48467 19.9223 9.732 19.927C9.97933 19.9317 10.2173 19.948 10.446 19.976C11.258 20.074 11.9463 20.3563 12.511 20.823C13.0757 21.2897 13.505 21.8823 13.799 22.601C14.093 23.3197 14.24 24.106 14.24 24.96C14.24 25.814 14.093 26.6003 13.799 27.319C13.505 28.0377 13.0757 28.6303 12.511 29.097C11.9463 29.5637 11.258 29.846 10.446 29.944C10.2173 29.972 9.97933 29.9883 9.732 29.993C9.48467 29.9977 9.32133 30 9.242 30H5.98ZM7.912 28.208H9.242C9.368 28.208 9.53833 28.2057 9.753 28.201C9.96767 28.1917 10.1613 28.1707 10.334 28.138C10.7727 28.0493 11.1297 27.844 11.405 27.522C11.685 27.2 11.8903 26.8127 12.021 26.36C12.1563 25.9073 12.224 25.4407 12.224 24.96C12.224 24.456 12.154 23.9777 12.014 23.525C11.8787 23.0723 11.671 22.6897 11.391 22.377C11.111 22.0643 10.7587 21.866 10.334 21.782C10.1613 21.7447 9.96767 21.7237 9.753 21.719C9.53833 21.7143 9.368 21.712 9.242 21.712H7.912V28.208Z" fill="white"/>
<defs>
<clipPath id="clip0_980_441">
<rect width="14" height="14" fill="white" transform="translate(3 2)"/>
</clipPath>
</defs>
</svg>
