<svg width="22" height="23" viewBox="0 0 22 23" fill="none" xmlns="http://www.w3.org/2000/svg">
<path d="M20.2025 12.0052C20.023 11.8045 19.924 11.5465 19.924 11.2793C19.924 11.0121 20.023 10.7541 20.2025 10.5534L21.6357 8.96961C21.7936 8.79657 21.8916 8.57884 21.9158 8.34765C21.9399 8.11647 21.8889 7.88371 21.77 7.68279L19.5307 3.8773C19.413 3.6766 19.2339 3.51752 19.0187 3.42272C18.8036 3.32792 18.5635 3.30226 18.3327 3.34938L16.2277 3.76732C15.9599 3.82168 15.681 3.77786 15.4438 3.64414C15.2066 3.51041 15.0274 3.29601 14.9401 3.04142L14.2571 1.02869C14.182 0.810238 14.0389 0.620498 13.848 0.486291C13.6571 0.352084 13.4282 0.280197 13.1934 0.280793H8.7148C8.47064 0.268274 8.22902 0.334604 8.02684 0.469652C7.82467 0.604701 7.67305 0.801043 7.59514 1.02869L6.96813 3.04142C6.8808 3.29601 6.70163 3.51041 6.46442 3.64414C6.22721 3.77786 5.94837 3.82168 5.68053 3.76732L3.51959 3.34938C3.30075 3.319 3.07766 3.35292 2.87841 3.44687C2.67917 3.54081 2.51268 3.69058 2.39993 3.8773L0.160616 7.68279C0.0387525 7.88147 -0.0160413 8.11292 0.00406833 8.34404C0.0241779 8.57516 0.118161 8.79412 0.272582 8.96961L1.69455 10.5534C1.87405 10.7541 1.97304 11.0121 1.97304 11.2793C1.97304 11.5465 1.87405 11.8045 1.69455 12.0052L0.272582 13.589C0.118161 13.7645 0.0241779 13.9834 0.00406833 14.2146C-0.0160413 14.4457 0.0387525 14.6771 0.160616 14.8758L2.39993 18.6813C2.5176 18.882 2.69677 19.0411 2.9119 19.1359C3.12702 19.2307 3.36712 19.2563 3.59797 19.2092L5.70292 18.7913C5.97076 18.7369 6.2496 18.7807 6.48681 18.9145C6.72402 19.0482 6.9032 19.2626 6.99053 19.5172L7.67352 21.5299C7.75142 21.7576 7.90304 21.9539 8.10522 22.0889C8.3074 22.224 8.54902 22.2903 8.79318 22.2778H13.2718C13.5065 22.2784 13.7355 22.2065 13.9264 22.0723C14.1173 21.9381 14.2604 21.7484 14.3355 21.5299L15.0185 19.5172C15.1058 19.2626 15.285 19.0482 15.5222 18.9145C15.7594 18.7807 16.0382 18.7369 16.3061 18.7913L18.411 19.2092C18.6419 19.2563 18.882 19.2307 19.0971 19.1359C19.3122 19.0411 19.4914 18.882 19.6091 18.6813L21.8484 14.8758C21.9673 14.6749 22.0183 14.4421 21.9942 14.2109C21.97 13.9798 21.872 13.762 21.714 13.589L20.2025 12.0052ZM18.5342 13.479L19.4299 14.4689L17.9968 16.9105L16.6756 16.6466C15.8692 16.4846 15.0303 16.6192 14.3182 17.0247C13.6062 17.4302 13.0704 18.0784 12.8127 18.8463L12.3873 20.0781H9.52095L9.11788 18.8243C8.86019 18.0564 8.32447 17.4082 7.61239 17.0027C6.90032 16.5972 6.06146 16.4626 5.25506 16.6246L3.93386 16.8885L2.47831 14.4579L3.37403 13.468C3.92485 12.8631 4.22938 12.0799 4.22938 11.2683C4.22938 10.4567 3.92485 9.67354 3.37403 9.0686L2.47831 8.07873L3.91147 5.65906L5.23267 5.92303C6.03907 6.08495 6.87792 5.95039 7.59 5.5449C8.30207 5.1394 8.8378 4.49119 9.09548 3.72332L9.52095 2.48049H12.3873L12.8127 3.73432C13.0704 4.50219 13.6062 5.1504 14.3182 5.55589C15.0303 5.96139 15.8692 6.09595 16.6756 5.93402L17.9968 5.67006L19.4299 8.11173L18.5342 9.10159C17.9896 9.70515 17.6888 10.4838 17.6888 11.2903C17.6888 12.0968 17.9896 12.8754 18.5342 13.479ZM10.9541 6.8799C10.0683 6.8799 9.20243 7.13792 8.46592 7.62133C7.72941 8.10474 7.15538 8.79183 6.8164 9.59572C6.47742 10.3996 6.38873 11.2842 6.56154 12.1376C6.73435 12.991 7.1609 13.7749 7.78725 14.3901C8.41359 15.0054 9.21161 15.4244 10.0804 15.5942C10.9491 15.7639 11.8497 15.6768 12.668 15.3438C13.4864 15.0108 14.1858 14.447 14.678 13.7235C15.1701 13 15.4327 12.1494 15.4327 11.2793C15.4327 10.1125 14.9609 8.9935 14.121 8.16845C13.2811 7.3434 12.1419 6.8799 10.9541 6.8799ZM10.9541 13.479C10.5112 13.479 10.0783 13.35 9.71002 13.1083C9.34177 12.8666 9.05475 12.523 8.88526 12.1211C8.71577 11.7191 8.67142 11.2769 8.75783 10.8502C8.84423 10.4235 9.05751 10.0315 9.37068 9.72387C9.68386 9.41624 10.0829 9.20674 10.5172 9.12186C10.9516 9.03699 11.4019 9.08055 11.8111 9.24704C12.2202 9.41353 12.57 9.69547 12.816 10.0572C13.0621 10.4189 13.1934 10.8442 13.1934 11.2793C13.1934 11.8627 12.9575 12.4222 12.5376 12.8347C12.1176 13.2472 11.548 13.479 10.9541 13.479Z" fill="#FAFAFA"/>
</svg>
