<svg width="22" height="22" viewBox="0 0 22 22" fill="none" xmlns="http://www.w3.org/2000/svg">
<path d="M1.09961 14.1162H8.7998C8.90099 14.1162 8.98329 14.1986 8.9834 14.2998V20.9004C8.98319 21.0015 8.90093 21.083 8.7998 21.083H1.09961C0.998668 21.0828 0.917203 21.0013 0.916992 20.9004V14.2998C0.917098 14.1988 0.998601 14.1164 1.09961 14.1162ZM13.2002 8.61621H20.9004C21.0014 8.61642 21.0829 8.69877 21.083 8.7998V20.9004C21.0828 21.0013 21.0013 21.0828 20.9004 21.083H13.2002C13.0991 21.083 13.0168 21.0015 13.0166 20.9004V8.7998C13.0167 8.69864 13.099 8.61621 13.2002 8.61621ZM1.09961 0.916992H8.7998C8.90093 0.916992 8.98319 0.998537 8.9834 1.09961V9.90039C8.98319 10.0015 8.90093 10.083 8.7998 10.083H1.09961C0.998667 10.0828 0.917203 10.0013 0.916992 9.90039V1.09961C0.917203 0.998667 0.998667 0.917203 1.09961 0.916992ZM13.2002 0.916992H20.9004C21.0013 0.917203 21.0828 0.998668 21.083 1.09961V4.40039C21.0828 4.50133 21.0013 4.5828 20.9004 4.58301H13.2002C13.0991 4.58301 13.0168 4.50146 13.0166 4.40039V1.09961C13.0168 0.998537 13.0991 0.916992 13.2002 0.916992Z" stroke="#01B990" stroke-width="1.83333"/>
</svg>
