<svg width="22" height="20" viewBox="0 0 22 20" fill="none" xmlns="http://www.w3.org/2000/svg">
<path d="M6.53706 0.286293C6.96241 0.698345 6.99678 1.39745 6.61439 1.8558L3.52095 5.55964C3.3319 5.7865 3.06552 5.92076 2.78195 5.9254C2.49839 5.93002 2.22771 5.81428 2.02578 5.60131L0.3029 3.74939C-0.100967 3.31418 -0.100967 2.61045 0.3029 2.17988C0.706767 1.74931 1.35983 1.74468 1.7594 2.17988L2.70891 3.20307L5.07626 0.369629C5.45865 -0.0887216 6.10741 -0.12576 6.53276 0.286293H6.53706ZM6.53706 7.69398C6.96241 8.10603 6.99678 8.80513 6.61439 9.26348L3.52095 12.9673C3.3319 13.1942 3.06552 13.3285 2.78195 13.3331C2.49839 13.3377 2.22771 13.222 2.02578 13.009L0.3029 11.1571C-0.100967 10.7219 -0.100967 10.0181 0.3029 9.58757C0.706767 9.157 1.35983 9.15237 1.7594 9.58757L2.70891 10.6108L5.07626 7.77732C5.45865 7.31897 6.10741 7.28193 6.53276 7.69398H6.53706ZM9.62621 2.96232C9.62621 2.14284 10.2406 1.48078 11.0011 1.48078H20.6251C21.3856 1.48078 22 2.14284 22 2.96232C22 3.7818 21.3856 4.44386 20.6251 4.44386H11.0011C10.2406 4.44386 9.62621 3.7818 9.62621 2.96232ZM9.62621 10.37C9.62621 9.55053 10.2406 8.88847 11.0011 8.88847H20.6251C21.3856 8.88847 22 9.55053 22 10.37C22 11.1895 21.3856 11.8515 20.6251 11.8515H11.0011C10.2406 11.8515 9.62621 11.1895 9.62621 10.37ZM6.87648 17.7777C6.87648 16.9582 7.49087 16.2962 8.25134 16.2962H20.6251C21.3856 16.2962 22 16.9582 22 17.7777C22 18.5972 21.3856 19.2592 20.6251 19.2592H8.25134C7.49087 19.2592 6.87648 18.5972 6.87648 17.7777ZM2.06445 20C0.925886 20 0.00214822 19.0046 0.00214822 17.7777C0.00214822 16.5508 0.925886 15.5554 2.06445 15.5554C3.20301 15.5554 4.12675 16.5508 4.12675 17.7777C4.12675 19.0046 3.20301 20 2.06445 20Z" fill="#FAFAFA"/>
</svg>
