<svg width="27" height="27" viewBox="0 0 27 27" fill="none" xmlns="http://www.w3.org/2000/svg">
<path d="M15.6375 12.3762L10.8 7.53867L12.375 5.96367L15.525 9.11367L21.9375 2.70117L23.5125 4.27617L15.525 12.2637L15.6375 12.3762ZM9 20.8137L15.6375 22.6137C16.425 22.8387 17.1 22.8387 17.8875 22.6137C19.575 22.1637 22.725 21.2637 23.2875 20.9262C23.85 20.5887 23.4 20.4762 23.2875 20.3637C23.175 20.2512 22.725 20.3637 22.5 20.3637H16.7625C16.2 20.3637 15.8625 20.3637 15.525 20.3637C15.1875 20.3637 14.9625 20.2512 14.625 20.1387L12.7125 19.4637C12.2625 19.3512 12.15 18.9012 12.2625 18.5637L12.4875 17.8887C12.6 17.4387 13.05 17.2137 13.5 17.3262L15.075 17.8887C15.4125 17.8887 15.75 18.1137 16.2 18.1137C16.65 18.1137 17.1 18.1137 17.8875 18.2262C17.8875 18.0012 17.8875 17.7762 17.8875 17.6637C17.8875 17.5512 17.6625 17.3262 17.4375 17.3262L11.1375 14.9637C11.025 14.9637 10.8 14.9637 10.6875 14.9637H9.1125V21.1512L9 20.8137ZM18.225 14.9637C18.9 15.1887 19.35 15.6387 19.6875 16.2012C20.025 16.7637 20.1375 17.1012 20.25 17.6637C20.3625 18.2262 20.475 18.1137 20.7 18.1137H22.5C23.4 18.1137 24.1875 18.4512 24.8625 19.0137C25.5375 19.5762 25.875 20.5887 25.875 21.6012C25.875 21.6012 25.875 22.5012 24.975 22.8387C24.075 23.1762 18.7875 24.7512 18.7875 24.7512C17.55 25.2012 16.2 25.2012 14.85 24.7512L9 23.0637V23.5137C9 24.1887 8.4375 24.6387 7.875 24.6387H3.375C2.7 24.6387 2.25 24.0762 2.25 23.5137V13.3887C2.25 12.7137 2.8125 12.2637 3.375 12.2637H10.8C11.25 12.2637 11.8125 12.4887 12.0375 12.6012M4.8375 22.5012H6.4125C6.6375 22.5012 6.75 22.3887 6.75 22.1637V15.3012C6.75 14.9637 6.4125 14.6262 6.075 14.6262H5.0625C4.725 14.6262 4.3875 14.9637 4.3875 15.3012V22.1637C4.3875 22.3887 4.5 22.5012 4.725 22.5012H4.8375Z" fill="white"/>
</svg>
