<svg width="23" height="21" viewBox="0 0 23 21" fill="none" xmlns="http://www.w3.org/2000/svg">
<path d="M1.68654e-08 2.25C1.68654e-08 1.65326 0.237053 1.08097 0.65901 0.65901C1.08097 0.237053 1.65326 0 2.25 0H20.25C20.8467 0 21.419 0.237053 21.841 0.65901C22.2629 1.08097 22.5 1.65326 22.5 2.25V4.5C22.5 4.89874 22.3941 5.29033 22.1931 5.63468C21.9921 5.97903 21.7031 6.26377 21.3559 6.45975C21.3682 6.55425 21.375 6.651 21.375 6.75V18C21.375 18.5967 21.1379 19.169 20.716 19.591C20.294 20.0129 19.7217 20.25 19.125 20.25H3.375C2.77826 20.25 2.20597 20.0129 1.78401 19.591C1.36205 19.169 1.125 18.5967 1.125 18V6.75C1.125 6.65212 1.13175 6.55425 1.14412 6.45975C0.796872 6.26377 0.507938 5.97903 0.306902 5.63468C0.105866 5.29033 -4.87972e-05 4.89874 1.68654e-08 4.5V2.25ZM20.25 4.5V2.25H2.25V4.5H20.25ZM3.375 6.75V18H19.125V6.75H3.375ZM6.75 10.125C6.75 9.82663 6.86853 9.54048 7.0795 9.3295C7.29048 9.11853 7.57663 9 7.875 9H14.625C14.9234 9 15.2095 9.11853 15.4205 9.3295C15.6315 9.54048 15.75 9.82663 15.75 10.125C15.75 10.4234 15.6315 10.7095 15.4205 10.9205C15.2095 11.1315 14.9234 11.25 14.625 11.25H7.875C7.57663 11.25 7.29048 11.1315 7.0795 10.9205C6.86853 10.7095 6.75 10.4234 6.75 10.125Z" fill="#FAFAFA"/>
</svg>
