<svg width="28" height="29" viewBox="0 0 28 29" fill="none" xmlns="http://www.w3.org/2000/svg">
<path d="M8.74907 18.0013C8.74907 18.0013 3.40765 12.9865 3.38327 12.8689C3.35889 12.7513 4.3166 8.43555 4.3166 8.43555L9.68327 13.5689C9.68327 13.5689 9.79994 13.5689 12.3666 12.9855L13.1833 10.3022L8.28327 5.16888L8.04994 4.93555C8.04994 4.93555 12.1328 3.41797 12.2495 3.41797C12.3661 3.41797 17.4423 8.78646 17.6166 9.01888C17.7909 9.2513 16.2166 14.1522 16.2166 14.1522C18.7833 16.7189 23.6051 21.7743 23.5666 21.8522C23.5281 21.9301 21.0849 24.5039 20.9999 24.4189C20.9149 24.3339 13.2999 16.8355 13.2999 16.8355C13.2999 16.8355 8.74907 18.0832 8.74907 18.0013Z" stroke="white" stroke-width="2.21667" stroke-miterlimit="10"/>
</svg>
