<svg width="22" height="23" viewBox="0 0 22 23" fill="none" xmlns="http://www.w3.org/2000/svg">
<rect x="0.9625" y="1.2125" width="20.075" height="20.105" rx="1.2375" stroke="#FAFAFA" stroke-width="1.925"/>
<path d="M5.49147 15.9964C5.68255 15.5907 6.52298 13.7126 9.788 13.5165C11.468 13.4156 17.0579 12.9272 17.0429 19.4098C17.0429 19.4098 17.0579 20.134 17.0579 20.5884C17.0579 21.0428 17.0197 21.0354 16.9734 21.0923C16.9213 21.1564 15.5085 21.1777 10.9806 21.1777C5.19038 21.1777 5.05721 21.1777 4.99931 21.0425C4.96457 20.9571 4.94141 20.3521 4.94141 19.5621C4.94141 17.7117 5.07458 16.8647 5.49147 15.9964Z" stroke="#FAFAFA" stroke-width="1.925" stroke-linecap="round"/>
<path d="M11.0039 3.2959C11.896 3.2959 12.6504 3.59325 13.1738 4.08887C13.6887 4.57658 14.0458 5.31739 14.0459 6.34277C14.0459 7.39483 13.6679 8.48375 13.0635 9.29492C12.454 10.1127 11.7092 10.5361 11.0039 10.5361C10.2986 10.5361 9.55376 10.1128 8.94434 9.29492C8.3399 8.48375 7.96289 7.39483 7.96289 6.34277C7.963 5.31741 8.31911 4.57658 8.83398 4.08887C9.35745 3.59325 10.1118 3.29591 11.0039 3.2959Z" stroke="#FAFAFA" stroke-width="1.925"/>
</svg>
