<svg width="27" height="27" viewBox="0 0 27 27" fill="none" xmlns="http://www.w3.org/2000/svg">
<path d="M13.1696 5.34C17.2396 5.34 20.5296 8.63 20.5296 12.7V17.03C20.5296 21.1 17.2396 24.39 13.1696 24.39C9.09961 24.39 5.80961 21.1 5.80961 17.03V12.7C5.80961 8.63 9.09961 5.34 13.1696 5.34ZM13.1696 22.75C16.3096 22.75 18.8096 20.21 18.8496 17.07V12.74C18.8496 9.6 16.3096 7.06 13.1696 7.06C10.0296 7.06 7.48961 9.6 7.48961 12.74V17.07C7.48961 20.21 10.0296 22.71 13.1696 22.75ZM18.8496 9.71H21.8796C24.1596 9.71 25.9896 11.54 25.9896 13.82V15.99C25.9896 18.27 24.1596 20.1 21.8796 20.1H18.8496V9.71ZM21.8696 18.38C23.1796 18.38 24.2596 17.3 24.2596 15.99V13.82C24.2596 12.51 23.1796 11.43 21.8696 11.43H20.5596V18.42L21.8696 18.38ZM7.48961 20.1H4.45961C2.17961 20.1 0.349609 18.27 0.349609 15.99V13.82C0.349609 11.54 2.17961 9.71 4.45961 9.71H7.48961V20.1ZM4.42961 11.39C3.11961 11.39 2.06961 12.51 2.06961 13.82V15.99C2.06961 17.3 3.14961 18.38 4.45961 18.38H5.76961V11.39H4.42961ZM22.7296 10.57H21.0096C21.0096 6.24 17.4996 2.72 13.1596 2.72C8.81961 2.72 5.30961 6.23 5.30961 10.57H3.58961C3.59961 5.3 7.85961 1 13.1696 1C18.4796 1 22.7296 5.26 22.7296 10.56V10.57ZM16.4496 26.57L16.4096 24.95C18.9496 24.95 21.0096 22.9 21.0096 20.35V19.23H22.7296V20.35C22.7296 23.82 19.8896 26.63 16.4496 26.63V26.56V26.57Z" fill="white" stroke="white" stroke-width="0.5" stroke-miterlimit="10"/>
</svg>
